<svg width="30" height="30" viewBox="0 0 30 30" fill="none" xmlns="http://www.w3.org/2000/svg">
<path fill-rule="evenodd" clip-rule="evenodd" d="M11.0575 9.65C10.6946 9.28711 10.1063 9.28711 9.74337 9.65C9.38048 10.0129 9.38048 10.6013 9.74337 10.9642L13.6858 14.9066L9.64998 18.9425C9.28708 19.3053 9.28708 19.8937 9.64997 20.2566C10.0129 20.6195 10.6012 20.6195 10.9641 20.2566L15 16.2208L19.0358 20.2566C19.3987 20.6195 19.9871 20.6195 20.35 20.2566C20.7129 19.8937 20.7129 19.3053 20.35 18.9425L16.3141 14.9066L20.2566 10.9642C20.6195 10.6013 20.6195 10.0129 20.2566 9.65C19.8937 9.28711 19.3053 9.28711 18.9424 9.65L15 13.5925L11.0575 9.65Z" fill="#FF005C"/>
</svg>
