<svg width="56" height="56" viewBox="0 0 56 56" fill="none" xmlns="http://www.w3.org/2000/svg">
<g filter="url(#filter0_d)">
<rect x="3.99998" y="2" width="48" height="48" rx="16" fill="#999999"/>
</g>
<path d="M24.1607 30.8998L25.2414 29.819C24.267 29.3129 23.4497 28.5496 22.8782 27.612C22.3068 26.6743 22.0031 25.5981 21.9999 24.5C22.006 24.3999 21.9907 24.2997 21.9551 24.206C21.9196 24.1123 21.8645 24.0272 21.7936 23.9563C21.7228 23.8854 21.6376 23.8304 21.5439 23.7948C21.4502 23.7593 21.35 23.744 21.2499 23.75C21.1499 23.744 21.0497 23.7593 20.956 23.7948C20.8623 23.8304 20.7771 23.8854 20.7063 23.9563C20.6354 24.0272 20.5803 24.1123 20.5448 24.206C20.5092 24.2997 20.4939 24.3999 20.4999 24.5C20.5013 25.7929 20.8397 27.0631 21.4816 28.1853C22.1236 29.3076 23.047 30.2431 24.1607 30.8998Z" fill="white"/>
<path d="M34.7499 23.75C34.6499 23.744 34.5497 23.7593 34.456 23.7948C34.3622 23.8304 34.2771 23.8854 34.2063 23.9563C34.1354 24.0272 34.0803 24.1123 34.0448 24.206C34.0092 24.2997 33.9939 24.3999 33.9999 24.5C33.9952 26.0898 33.3615 27.6132 32.2373 28.7374C31.1132 29.8616 29.5898 30.4953 27.9999 30.5C27.5969 30.5003 27.1948 30.4596 26.7999 30.3785L25.6157 31.5658C26.1452 31.7468 26.6934 31.8673 27.2499 31.925V33.5H24.2499C24.051 33.5 23.8603 33.579 23.7196 33.7197C23.579 33.8603 23.4999 34.0511 23.4999 34.25C23.4999 34.4489 23.579 34.6397 23.7196 34.7803C23.8603 34.921 24.051 35 24.2499 35H31.7499C31.9489 35 32.1396 34.921 32.2803 34.7803C32.4209 34.6397 32.4999 34.4489 32.4999 34.25C32.4999 34.0511 32.4209 33.8603 32.2803 33.7197C32.1396 33.579 31.9489 33.5 31.7499 33.5H28.7499V31.925C30.5946 31.7425 32.306 30.8822 33.5529 29.5106C34.7998 28.139 35.4935 26.3536 35.4999 24.5C35.506 24.3999 35.4907 24.2997 35.4551 24.206C35.4196 24.1123 35.3645 24.0272 35.2936 23.9563C35.2228 23.8854 35.1376 23.8304 35.0439 23.7948C34.9502 23.7593 34.85 23.744 34.7499 23.75Z" fill="white"/>
<path d="M28.1912 28.9902C29.315 28.9394 30.3791 28.4701 31.1746 27.6746C31.9701 26.8792 32.4393 25.815 32.4902 24.6912L28.1912 28.9902Z" fill="white"/>
<path d="M26.3717 28.6887L32.4999 22.5605V21.5C32.4999 20.3065 32.0258 19.1619 31.1819 18.318C30.338 17.4741 29.1934 17 27.9999 17C26.8065 17 25.6619 17.4741 24.818 18.318C23.9741 19.1619 23.4999 20.3065 23.4999 21.5V24.5C23.503 25.4058 23.7785 26.2896 24.2907 27.0367C24.8028 27.7837 25.5279 28.3594 26.3717 28.6887Z" fill="white"/>
<path d="M21.25 33.5C21.1016 33.5 20.9567 33.456 20.8334 33.3736C20.7101 33.2911 20.6139 33.174 20.5572 33.037C20.5004 32.9 20.4856 32.7492 20.5145 32.6037C20.5434 32.4583 20.6148 32.3246 20.7197 32.2197L34.2197 18.7197C34.2889 18.6481 34.3716 18.591 34.4632 18.5517C34.5547 18.5124 34.6531 18.4917 34.7527 18.4908C34.8522 18.4899 34.951 18.5089 35.0432 18.5466C35.1353 18.5843 35.2191 18.64 35.2895 18.7105C35.3599 18.7809 35.4156 18.8646 35.4533 18.9568C35.491 19.049 35.51 19.1477 35.5091 19.2473C35.5083 19.3469 35.4876 19.4453 35.4483 19.5368C35.409 19.6283 35.3518 19.7111 35.2802 19.7802L21.7802 33.2803C21.6396 33.4209 21.4489 33.5 21.25 33.5Z" fill="white"/>
<defs>
<filter id="filter0_d" x="-2.28882e-05" y="0" width="56" height="56" filterUnits="userSpaceOnUse" color-interpolation-filters="sRGB">
<feFlood flood-opacity="0" result="BackgroundImageFix"/>
<feColorMatrix in="SourceAlpha" type="matrix" values="0 0 0 0 0 0 0 0 0 0 0 0 0 0 0 0 0 0 127 0"/>
<feOffset dy="2"/>
<feGaussianBlur stdDeviation="2"/>
<feColorMatrix type="matrix" values="0 0 0 0 0 0 0 0 0 0 0 0 0 0 0 0 0 0 0.08 0"/>
<feBlend mode="normal" in2="BackgroundImageFix" result="effect1_dropShadow"/>
<feBlend mode="normal" in="SourceGraphic" in2="effect1_dropShadow" result="shape"/>
</filter>
</defs>
</svg>
